# xmcd
# 
# Track frame offsets:
#     150
#     18732
#     30810
#     47979
#     62009
#     78281
#     96319
#     113651
#     133101
#     144000
#     151754
#     164235
# 
# Disc length: 2281
# 
# Revision: 1
# Processed by: cddbd v1.5.2PL0 Copyright (c) Steve Scherf et al.
# Submitted via: fre:ac v1.0.31
# 
DISCID=9508e70c
DTITLE=Peter Wolf - A Cure For Loneliness
DYEAR=2016
DGENRE=Rock/Pop
TTITLE0=Rolling On
TTITLE1=It Was Always So Easy (To Find An Unhappy Woman)
TTITLE2=Peace Of Mind
TTITLE3=How Do You Know
TTITLE4=Fun For Awhile
TTITLE5=Wastin' Time - Live
TTITLE6=Some Other Time, Some Other Place
TTITLE7=It's Raining
TTITLE8=Love Stinks - Live
TTITLE9=Mr. Mistake
TTITLE10=Tragedy
TTITLE11=Stranger
EXTD=
EXTT0=
EXTT1=
EXTT2=
EXTT3=
EXTT4=
EXTT5=
EXTT6=
EXTT7=
EXTT8=
EXTT9=
EXTT10=
EXTT11=
PLAYORDER=
